<svg xmlns="http://www.w3.org/2000/svg" xmlns:xlink="http://www.w3.org/1999/xlink" preserveAspectRatio="xMidYMid" width="13.515" height="13.56" viewBox="0 0 27.03 27.12">
  <defs>
    <style>
      .cls-1 {
        fill: #293443;
        fill-rule: evenodd;
      }
    </style>
  </defs>
  <path d="M13.512,9.241 C16.354,9.241 18.658,11.552 18.658,14.405 C18.658,17.256 16.354,19.568 13.512,19.568 C10.670,19.568 8.366,17.256 8.366,14.405 C8.366,11.552 10.670,9.241 13.512,9.241 ZM13.512,17.848 C15.407,17.848 16.944,16.306 16.944,14.405 C16.944,12.503 15.407,10.961 13.512,10.961 C11.617,10.961 10.080,12.503 10.080,14.405 C10.080,16.306 11.617,17.848 13.512,17.848 ZM21.961,27.120 L5.063,27.120 C2.263,27.120 -0.006,24.843 -0.006,22.034 L-0.006,5.080 C-0.006,3.580 0.653,2.245 1.683,1.314 L1.683,8.471 L1.683,9.319 L1.683,22.034 C1.683,23.906 3.196,25.424 5.063,25.424 L21.961,25.424 C23.827,25.424 25.340,23.906 25.340,22.034 L25.340,8.471 L18.153,8.471 C16.926,7.343 15.307,6.639 13.512,6.639 C11.717,6.639 10.097,7.343 8.871,8.471 L6.753,8.471 L6.753,-0.006 L21.961,-0.006 C24.760,-0.006 27.030,2.271 27.030,5.080 L27.030,5.927 L27.030,8.471 L27.030,22.034 C27.030,24.843 24.760,27.120 21.961,27.120 ZM24.495,4.233 C24.495,3.296 23.739,2.537 22.805,2.537 L21.116,2.537 C20.183,2.537 19.426,3.296 19.426,4.233 L19.426,5.080 C19.426,6.017 20.183,6.776 21.116,6.776 L22.805,6.776 C23.739,6.776 24.495,6.017 24.495,5.080 L24.495,4.233 ZM3.373,0.305 C3.904,0.116 4.467,-0.006 5.063,-0.006 L5.063,8.471 L3.373,8.471 L3.373,0.305 Z" class="cls-1"/>
</svg>
