<?xml version="1.0" encoding="utf-8"?>
<!-- Generator: Adobe Illustrator 19.0.0, SVG Export Plug-In . SVG Version: 6.00 Build 0)  -->
<svg version="1.1" id="Calque_1" xmlns="http://www.w3.org/2000/svg" xmlns:xlink="http://www.w3.org/1999/xlink" x="0px" y="0px"
	 viewBox="-7 -24.9 595.3 841.9" style="enable-background:new -7 -24.9 595.3 841.9;" xml:space="preserve">
<style type="text/css">
	.st0{fill:#687682;}
</style>
<g id="XMLID_2_">
	<g id="XMLID_13_">
		<path id="XMLID_23_" class="st0" d="M25-10c0-3.5-0.1-9.9-1.1-11.5c-0.4-0.7-1.4-1.1-2.8-1.2l-1.4-0.1c-0.3-0.4-0.2-1.1,0.1-1.3
			c2.1,0.1,4.2,0.2,6.4,0.2c2.3,0,3.8-0.1,5.9-0.2c0.4,0.3,0.4,1,0.1,1.3l-1.3,0.1c-1.4,0.1-2.5,0.6-2.8,1.3
			c-0.8,1.8-0.8,8.3-0.8,11.4v6.3c0,4.9-0.8,10-3.9,13.3c-2.4,2.6-6.5,4.1-10.7,4.1C8.9,13.7,5,13,2.3,10.6c-3-2.5-4.4-6.5-4.4-13.2
			v-13.1c0-5.8-0.1-6.8-3.3-7l-1.4-0.1C-7.1-23.1-7-24-6.7-24.2C-3.9-24.1-2-24,0.2-24c2.3,0,4.1-0.1,6.9-0.2
			c0.3,0.2,0.4,1.1,0.1,1.3l-1.3,0.1c-3.2,0.3-3.3,1.2-3.3,7v12c0,9,2.8,14.9,11.3,14.9c8.1,0,11.2-6.4,11.2-14.8V-10H25z"/>
		<path id="XMLID_21_" class="st0" d="M80.6,3.3c0,1.7,0,8.3,0.2,9.8c-0.1,0.3-0.4,0.6-1.1,0.6c-0.7-0.9-2.3-2.9-7.1-8.4l-13-14.7
			c-1.5-1.7-5.3-6.3-6.5-7.5H53c-0.2,0.7-0.3,2-0.3,3.6v12.2c0,2.6,0.1,9.9,1,11.5c0.3,0.6,1.5,0.9,2.8,1.1l1.7,0.2
			c0.3,0.4,0.3,1.1-0.1,1.4c-2.5-0.1-4.5-0.2-6.5-0.2c-2.3,0-3.8,0.1-5.8,0.2c-0.4-0.3-0.4-1.1-0.1-1.4l1.5-0.2
			c1.3-0.2,2.2-0.5,2.5-1.1c0.8-2,0.7-8.8,0.7-11.5v-16.2c0-1.6-0.1-2.7-1.2-4c-0.8-0.8-2.1-1.2-3.5-1.3l-0.9-0.1
			c-0.3-0.3-0.3-1.2,0.1-1.4c2.3,0.2,5.3,0.2,6.3,0.2c0.9,0,1.8-0.1,2.6-0.2c1.2,2.8,7.7,10.1,9.6,12.2l5.4,6.1
			c3.8,4.3,6.6,7.4,9.2,10.1h0.1C78.3,4,78.3,3.1,78.3,2v-12c0-2.6-0.1-9.9-1.1-11.5c-0.3-0.5-1.2-0.8-3.5-1.1l-0.9-0.1
			c-0.4-0.3-0.3-1.2,0.1-1.4c2.6,0.1,4.5,0.2,6.6,0.2c2.4,0,3.8-0.1,5.7-0.2c0.4,0.3,0.4,1.1,0.1,1.4l-0.8,0.1
			c-1.8,0.3-2.9,0.7-3.1,1.2c-0.9,2-0.8,8.9-0.8,11.5L80.6,3.3L80.6,3.3z"/>
		<path id="XMLID_19_" class="st0" d="M104.9-15.5c0-5.9-0.1-6.9-3.4-7.1l-1.4-0.1c-0.3-0.2-0.2-1.2,0.1-1.4c2.8,0.1,4.7,0.2,7,0.2
			c2.2,0,4.1-0.1,6.9-0.2c0.3,0.2,0.4,1.2,0.1,1.4l-1.4,0.1c-3.3,0.3-3.4,1.2-3.4,7.1V4.4c0,5.9,0.1,6.7,3.4,7.1l1.4,0.2
			c0.3,0.2,0.2,1.2-0.1,1.4c-2.8-0.1-4.7-0.2-6.9-0.2c-2.3,0-4.2,0.1-7,0.2c-0.3-0.2-0.4-1.1-0.1-1.4l1.4-0.2
			c3.3-0.4,3.4-1.2,3.4-7.1V-15.5z"/>
		<path id="XMLID_16_" class="st0" d="M129.8-5.2c0-11.2,8.4-19.7,19.9-19.7c12.8,0,19.3,9.3,19.3,19.1c0,11.3-8.6,19.5-19.4,19.5
			C137.2,13.7,129.8,4.8,129.8-5.2z M163.4-4c0-9.2-4.1-19.1-14.7-19.1c-5.8,0-13.3,4-13.3,16.2c0,8.3,4,19,15,19
			C157,12,163.4,7,163.4-4z"/>
		<path id="XMLID_14_" class="st0" d="M219.3,3.3c0,1.7,0,8.3,0.2,9.8c-0.1,0.3-0.4,0.6-1.1,0.6c-0.7-0.9-2.3-2.9-7.1-8.4L198.4-9.4
			c-1.5-1.7-5.3-6.3-6.5-7.5h-0.1c-0.2,0.7-0.3,2-0.3,3.6v12.2c0,2.6,0.1,9.9,1,11.5c0.3,0.6,1.5,0.9,2.8,1.1l1.7,0.2
			c0.3,0.4,0.3,1.1-0.1,1.4c-2.5-0.1-4.5-0.2-6.5-0.2c-2.3,0-3.8,0.1-5.8,0.2c-0.4-0.3-0.4-1.1-0.1-1.4l1.5-0.2
			c1.3-0.2,2.2-0.5,2.5-1.1c0.8-2,0.7-8.8,0.7-11.5v-16.2c0-1.6-0.1-2.7-1.2-4c-0.8-0.8-2.1-1.2-3.5-1.3l-0.9-0.1
			c-0.3-0.3-0.3-1.2,0.1-1.4c2.3,0.2,5.3,0.2,6.3,0.2c0.9,0,1.8-0.1,2.6-0.2c1.1,2.8,7.7,10.2,9.5,12.3l5.4,6.1
			c3.8,4.3,6.6,7.4,9.2,10.1h0.1c0.2-0.3,0.2-1.2,0.2-2.3V-10c0-2.6-0.1-9.9-1.1-11.5c-0.3-0.5-1.2-0.8-3.5-1.1l-0.9-0.1
			c-0.4-0.3-0.3-1.2,0.1-1.4c2.6,0.1,4.5,0.2,6.6,0.2c2.4,0,3.8-0.1,5.7-0.2c0.4,0.3,0.4,1.1,0.1,1.4l-0.8,0.1
			c-1.8,0.3-2.9,0.7-3.1,1.2c-0.9,2-0.8,8.9-0.8,11.5L219.3,3.3L219.3,3.3z"/>
	</g>
	<g id="XMLID_3_">
		<path id="XMLID_11_" class="st0" d="M282.4-15.5c0-6.2-0.6-6.9-3.8-7.1l-1.4-0.1c-0.3-0.2-0.2-1.2,0.1-1.4
			c3.2,0.1,5.1,0.2,7.5,0.2c2.2,0,4.1-0.1,6.4-0.2c0.3,0.2,0.4,1.2,0.1,1.4l-0.8,0.1c-3.3,0.4-3.4,1.2-3.4,7.1V5.2
			c0,4.4-0.2,8.3-1.3,10.8c-1.8,4.5-5.8,8-11,8c-0.7,0-2.4-0.1-2.4-1.2c0-0.9,0.8-2.6,2-2.6c0.7,0,1.3,0.1,2.1,0.3
			c0.8,0.2,1.6,0.4,2.3,0.4c1.2,0,1.8-0.7,2.2-1.5c1.3-2.6,1.5-11,1.5-14v-20.9H282.4z"/>
		<path id="XMLID_8_" class="st0" d="M327-0.1c-0.4-1.2-0.6-1.4-2.3-1.4h-8.4c-1.4,0-1.7,0.2-2.1,1.3l-2,5.9c-0.8,2.5-1.2,4-1.2,4.6
			c0,0.7,0.3,1,1.6,1.1l1.8,0.2c0.4,0.3,0.4,1.2-0.1,1.4c-1.5-0.1-3.2-0.1-5.8-0.2c-1.8,0-3.8,0.1-5.4,0.2c-0.3-0.2-0.4-1.1-0.1-1.4
			l1.8-0.2c1.3-0.1,2.6-0.7,3.3-2.7c1-2.6,2.6-6.2,4.9-12.4l5.7-15.1c0.8-2,1.1-3.1,0.9-4c1.3-0.4,2.3-1.4,2.9-2.1
			c0.3,0,0.7,0.1,0.8,0.5c0.7,2.5,1.6,5,2.5,7.5l7.6,22.4c1.6,4.8,2.3,5.6,4.7,5.9l1.5,0.2c0.4,0.3,0.3,1.2,0,1.4
			c-2.3-0.1-4.2-0.2-6.8-0.2c-2.7,0-4.8,0.1-6.4,0.2c-0.4-0.2-0.5-1.1-0.1-1.4l1.6-0.2c1.2-0.1,2-0.4,2-1s-0.3-1.6-0.7-3L327-0.1z
			 M316-5.1c-0.4,1.3-0.4,1.3,1.2,1.3h6.9c1.6,0,1.7-0.2,1.2-1.7l-3-9.1c-0.4-1.3-0.9-2.8-1.3-3.5h-0.1c-0.2,0.3-0.7,1.6-1.3,3.3
			L316-5.1z"/>
		<path id="XMLID_6_" class="st0" d="M386.8,3.3c0,1.7,0,8.3,0.2,9.8c-0.1,0.3-0.4,0.6-1.1,0.6c-0.7-0.9-2.3-2.9-7.1-8.4L365.9-9.4
			c-1.5-1.7-5.3-6.3-6.5-7.5h-0.1c-0.2,0.7-0.3,2-0.3,3.6v12.2c0,2.6,0.1,9.9,1,11.5c0.3,0.6,1.5,0.9,2.8,1.1l1.7,0.2
			c0.3,0.4,0.3,1.1-0.1,1.4c-2.5-0.1-4.5-0.2-6.5-0.2c-2.3,0-3.8,0.1-5.8,0.2c-0.4-0.3-0.4-1.1-0.1-1.4l1.5-0.2
			c1.3-0.2,2.2-0.5,2.5-1.1c0.8-2,0.7-8.8,0.7-11.5v-16.2c0-1.6-0.1-2.7-1.2-4c-0.8-0.8-2.1-1.2-3.5-1.3l-0.9-0.1
			c-0.3-0.3-0.3-1.2,0.1-1.4c2.3,0.2,5.3,0.2,6.3,0.2c0.9,0,1.8-0.1,2.6-0.2c1.1,2.8,7.7,10.2,9.5,12.3l5.4,6.1
			c3.8,4.3,6.6,7.4,9.2,10.1h0.1c0.2-0.3,0.2-1.2,0.2-2.3V-10c0-2.6-0.1-9.9-1.1-11.5c-0.3-0.5-1.2-0.8-3.5-1.1l-0.9-0.2
			c-0.4-0.3-0.3-1.2,0.1-1.4c2.6,0.1,4.5,0.2,6.6,0.2c2.4,0,3.8-0.1,5.7-0.2c0.4,0.3,0.4,1.1,0.1,1.4l-0.8,0.1
			c-1.8,0.3-2.9,0.7-3.1,1.2c-0.9,2-0.8,8.9-0.8,11.5L386.8,3.3L386.8,3.3z"/>
		<path id="XMLID_4_" class="st0" d="M411.1-15.6c0-5.8-0.1-6.6-3.4-7l-0.9-0.1c-0.3-0.2-0.2-1.2,0.1-1.4c2.4,0.1,4.3,0.2,6.6,0.2
			H424c3.6,0,6.9,0,7.5-0.2c0.3,0.9,0.7,5,0.9,7.4c-0.2,0.3-1.1,0.4-1.4,0.1c-0.8-2.6-1.3-4.6-4.2-5.3c-1.2-0.3-3-0.3-5.4-0.3h-4
			c-1.7,0-1.7,0.1-1.7,2.2v11.1c0,1.6,0.2,1.6,1.8,1.6h3.2c2.3,0,4.1-0.1,4.7-0.3c0.7-0.2,1.1-0.6,1.3-2l0.4-2.3
			c0.3-0.3,1.2-0.3,1.5,0.1c0,1.3-0.2,3.5-0.2,5.6c0,2,0.2,4.1,0.2,5.4c-0.2,0.4-1.2,0.4-1.5,0.1l-0.5-2.2c-0.2-1-0.6-1.8-1.7-2.1
			c-0.8-0.2-2.1-0.3-4.3-0.3h-3.2c-1.7,0-1.8,0.1-1.8,1.5v7.9c0,3,0.2,4.9,1.1,5.8c0.7,0.7,1.8,1.3,6.8,1.3c4.3,0,5.9-0.2,7.1-0.8
			c1-0.6,2.5-2.5,4-5.4c0.4-0.3,1.2-0.1,1.4,0.4c-0.4,2-1.8,6.2-2.5,7.8c-5-0.1-10-0.2-15-0.2h-5c-2.4,0-4.3,0.1-7.6,0.2
			c-0.3-0.2-0.4-1.1-0.1-1.4l1.8-0.2c3.2-0.3,3.5-1.1,3.5-7L411.1-15.6L411.1-15.6z"/>
	</g>
</g>
</svg>
