<svg xmlns="http://www.w3.org/2000/svg" xmlns:xlink="http://www.w3.org/1999/xlink" preserveAspectRatio="xMidYMid" width="64" height="64" viewBox="0 0 64 64">
  <defs>
    <style>
      .cls-1 {
        fill: #fff;
        fill-rule: evenodd;
      }
    </style>
  </defs>
  <path d="M32.000,64.000 C14.327,64.000 -0.000,49.673 -0.000,32.000 C-0.000,14.327 14.327,0.000 32.000,0.000 C49.673,0.000 64.000,14.327 64.000,32.000 C64.000,49.673 49.673,64.000 32.000,64.000 ZM32.000,2.000 C15.431,2.000 2.000,15.432 2.000,32.000 C2.000,48.569 15.431,62.000 32.000,62.000 C48.568,62.000 62.000,48.569 62.000,32.000 C62.000,15.432 48.568,2.000 32.000,2.000 ZM44.000,47.000 L43.000,47.000 L41.000,47.000 L22.000,47.000 L20.000,47.000 C17.791,47.000 16.000,45.209 16.000,43.000 L16.000,24.000 C16.000,21.791 17.791,20.000 20.000,20.000 L22.000,20.000 L22.000,22.000 L20.000,22.000 C18.896,22.000 18.000,22.895 18.000,24.000 L18.000,43.000 C18.000,44.105 18.896,45.000 20.000,45.000 L22.000,45.000 L41.000,45.000 L43.000,45.000 L44.000,45.000 C45.105,45.000 46.000,44.105 46.000,43.000 L46.000,24.000 C46.000,22.895 45.105,22.000 44.000,22.000 L42.000,22.000 L42.000,20.000 L44.000,20.000 C46.209,20.000 48.000,21.791 48.000,24.000 L48.000,43.000 C48.000,45.209 46.209,47.000 44.000,47.000 ZM40.000,36.000 C41.105,36.000 42.000,36.895 42.000,38.000 C42.000,39.105 41.105,40.000 40.000,40.000 C38.895,40.000 38.000,39.105 38.000,38.000 C38.000,36.895 38.895,36.000 40.000,36.000 ZM40.000,32.000 C38.895,32.000 38.000,31.105 38.000,30.000 C38.000,28.896 38.895,28.000 40.000,28.000 C41.105,28.000 42.000,28.896 42.000,30.000 C42.000,31.105 41.105,32.000 40.000,32.000 ZM38.000,18.000 L40.000,18.000 L40.000,24.000 L38.000,24.000 L38.000,18.000 ZM32.000,36.000 C33.105,36.000 34.000,36.895 34.000,38.000 C34.000,39.105 33.105,40.000 32.000,40.000 C30.895,40.000 30.000,39.105 30.000,38.000 C30.000,36.895 30.895,36.000 32.000,36.000 ZM32.000,28.000 C33.105,28.000 34.000,28.896 34.000,30.000 C34.000,31.105 33.105,32.000 32.000,32.000 C30.895,32.000 30.000,31.105 30.000,30.000 C30.000,28.896 30.895,28.000 32.000,28.000 ZM28.000,20.000 L36.000,20.000 L36.000,22.000 L28.000,22.000 L28.000,20.000 ZM24.000,40.000 C22.895,40.000 22.000,39.105 22.000,38.000 C22.000,36.895 22.895,36.000 24.000,36.000 C25.104,36.000 26.000,36.895 26.000,38.000 C26.000,39.105 25.104,40.000 24.000,40.000 ZM24.000,32.000 C22.895,32.000 22.000,31.105 22.000,30.000 C22.000,28.896 22.895,28.000 24.000,28.000 C25.104,28.000 26.000,28.896 26.000,30.000 C26.000,31.105 25.104,32.000 24.000,32.000 ZM24.000,18.000 L26.000,18.000 L26.000,24.000 L24.000,24.000 L24.000,18.000 Z" class="cls-1"/>
</svg>
