<svg xmlns="http://www.w3.org/2000/svg" xmlns:xlink="http://www.w3.org/1999/xlink" preserveAspectRatio="xMidYMid" width="64" height="64" viewBox="0 0 64 64">
  <defs>
    <style>
      .cls-1 {
        fill: #fff;
        fill-rule: evenodd;
      }
    </style>
  </defs>
  <path d="M32.000,64.000 C14.327,64.000 -0.000,49.673 -0.000,32.000 C-0.000,14.327 14.327,0.000 32.000,0.000 C49.673,0.000 64.000,14.327 64.000,32.000 C64.000,49.673 49.673,64.000 32.000,64.000 ZM32.000,2.000 C15.432,2.000 2.000,15.432 2.000,32.000 C2.000,48.569 15.432,62.001 32.000,62.001 C48.568,62.001 62.000,48.569 62.000,32.000 C62.000,15.432 48.568,2.000 32.000,2.000 ZM39.929,35.527 L39.439,36.400 L38.459,38.146 C38.140,38.714 37.780,39.485 37.132,39.814 L29.826,44.788 C29.565,44.921 29.283,44.980 29.000,44.987 L29.000,45.000 L18.000,45.000 L18.000,43.000 L27.011,43.000 L27.539,34.115 C27.493,33.374 27.955,32.664 28.274,32.096 L29.254,30.350 L36.544,17.011 C37.085,16.047 38.284,15.716 39.222,16.273 L46.012,20.307 C46.949,20.864 47.270,22.097 46.729,23.062 L39.929,35.527 ZM33.891,26.119 L31.931,29.611 C31.931,29.611 30.607,31.971 29.971,33.105 C29.336,34.238 29.120,35.952 29.155,36.507 L28.480,41.325 C28.511,41.829 28.784,42.282 29.209,42.535 C29.633,42.786 30.152,42.803 30.591,42.579 L34.309,39.569 C34.795,39.323 36.132,38.260 36.761,37.138 C37.391,36.016 37.741,35.391 37.741,35.391 L38.231,34.518 L40.682,30.152 L42.112,27.488 L35.321,23.457 L33.891,26.119 ZM38.242,18.020 L36.250,21.727 L43.041,25.758 L45.031,22.053 L38.242,18.020 Z" class="cls-1"/>
</svg>
