<svg xmlns="http://www.w3.org/2000/svg" xmlns:xlink="http://www.w3.org/1999/xlink" preserveAspectRatio="xMidYMid" width="64" height="64" viewBox="0 0 64 64">
  <defs>
    <style>
      .cls-1 {
        fill: #fff;
        fill-rule: evenodd;
      }
    </style>
  </defs>
  <path d="M32.000,64.000 C14.327,64.000 -0.000,49.673 -0.000,32.000 C-0.000,14.327 14.327,0.000 32.000,0.000 C49.673,0.000 64.000,14.327 64.000,32.000 C64.000,49.673 49.673,64.000 32.000,64.000 ZM32.000,2.000 C15.432,2.000 2.000,15.432 2.000,32.001 C2.000,48.569 15.432,62.001 32.000,62.001 C48.568,62.001 62.000,48.569 62.000,32.001 C62.000,15.432 48.568,2.000 32.000,2.000 ZM42.000,43.000 L22.000,43.000 C20.896,43.000 20.000,42.105 20.000,41.000 L16.000,30.000 C16.000,28.896 16.895,28.000 18.000,28.000 L18.000,23.000 C18.000,21.896 18.896,21.000 20.000,21.000 L29.000,21.000 C30.104,21.000 31.000,21.896 31.000,23.000 L31.000,24.000 L44.000,24.000 C45.105,24.000 46.000,24.895 46.000,26.000 L46.000,28.000 C47.105,28.000 48.000,28.896 48.000,30.000 L44.000,41.000 C44.000,42.105 43.105,43.000 42.000,43.000 ZM44.000,26.000 L30.000,26.000 L29.000,26.000 L29.000,23.000 L20.000,23.000 L20.000,26.000 L20.000,28.000 L44.000,28.000 L44.000,26.000 ZM44.000,30.000 L28.000,30.000 L27.000,30.000 L20.000,30.000 L18.000,30.000 L22.000,41.000 L42.000,41.000 L46.000,30.000 L44.000,30.000 Z" class="cls-1"/>
</svg>
