<svg xmlns="http://www.w3.org/2000/svg" xmlns:xlink="http://www.w3.org/1999/xlink" preserveAspectRatio="xMidYMid" width="64" height="64" viewBox="0 0 64 64">
  <defs>
    <style>
      .cls-1 {
        fill: #fff;
        fill-rule: evenodd;
      }
    </style>
  </defs>
  <path d="M64.000,32.001 C64.000,49.674 49.673,64.000 32.000,64.000 C14.327,64.000 -0.000,49.673 -0.000,32.000 C-0.000,14.327 14.327,0.000 31.999,0.000 C32.000,0.000 32.000,0.000 32.000,0.000 C32.000,0.000 32.000,0.000 32.001,0.000 C49.673,0.001 63.999,14.327 64.000,31.999 C64.000,31.999 64.000,32.000 64.000,32.000 C64.000,32.000 64.000,32.001 64.000,32.001 ZM61.000,31.000 L61.950,31.000 C61.428,15.234 48.765,2.571 33.000,2.050 L33.000,3.000 C33.000,3.552 32.552,4.000 32.000,4.000 C31.448,4.000 31.000,3.552 31.000,3.000 L31.000,2.050 C15.235,2.571 2.571,15.233 2.050,31.000 L3.000,31.000 C3.552,31.000 4.000,31.448 4.000,32.000 C4.000,32.552 3.552,33.000 3.000,33.000 L2.050,33.000 C2.571,48.767 15.235,61.430 31.000,61.951 L31.000,61.000 C31.000,60.448 31.448,60.000 32.000,60.000 C32.552,60.000 33.000,60.448 33.000,61.000 L33.000,61.951 C48.765,61.430 61.429,48.767 61.950,33.000 L61.000,33.000 C60.448,33.000 60.000,32.552 60.000,32.000 C60.000,31.448 60.448,31.000 61.000,31.000 ZM46.000,33.000 L38.000,33.000 L38.000,31.000 L46.000,31.000 C46.552,31.000 47.000,31.448 47.000,32.000 C47.000,32.552 46.552,33.000 46.000,33.000 ZM32.000,36.000 C29.791,36.000 28.000,34.209 28.000,32.000 C28.000,29.791 29.791,28.000 32.000,28.000 C34.209,28.000 36.000,29.791 36.000,32.000 C36.000,34.209 34.209,36.000 32.000,36.000 ZM32.000,30.000 C30.895,30.000 30.000,30.895 30.000,32.000 C30.000,33.105 30.895,34.000 32.000,34.000 C33.105,34.000 34.000,33.105 34.000,32.000 C34.000,30.895 33.105,30.000 32.000,30.000 ZM31.000,12.000 C31.000,11.448 31.448,11.000 32.000,11.000 C32.552,11.000 33.000,11.448 33.000,12.000 L33.000,26.000 L31.000,26.000 L31.000,12.000 Z" class="cls-1"/>
</svg>
