<svg xmlns="http://www.w3.org/2000/svg" xmlns:xlink="http://www.w3.org/1999/xlink" preserveAspectRatio="xMidYMid" width="64" height="64" viewBox="0 0 64 64">
  <defs>
    <style>
      .cls-1 {
        fill: #fff;
        fill-rule: evenodd;
      }
    </style>
  </defs>
  <path d="M32.000,64.000 C14.327,64.000 -0.000,49.673 -0.000,32.000 C-0.000,14.327 14.327,0.000 32.000,0.000 C49.673,0.000 64.000,14.327 64.000,32.000 C64.000,49.673 49.673,64.000 32.000,64.000 ZM32.000,2.000 C15.432,2.000 2.000,15.432 2.000,32.001 C2.000,48.569 15.432,62.000 32.000,62.000 C48.568,62.000 62.000,48.569 62.000,32.001 C62.000,15.432 48.568,2.000 32.000,2.000 ZM45.000,30.000 C44.570,30.000 44.163,29.914 43.774,29.789 L38.844,37.537 L38.702,37.447 L38.445,37.832 L33.970,34.848 L30.832,39.555 L30.677,39.452 L30.419,39.814 L24.907,35.877 L18.819,44.573 L17.181,43.427 L24.181,33.427 L24.333,33.533 L24.581,33.186 L30.063,37.102 L33.168,32.445 L33.308,32.538 L33.555,32.168 L38.003,35.133 L42.083,28.721 C41.416,28.007 41.000,27.055 41.000,26.000 C41.000,23.791 42.791,22.000 45.000,22.000 C47.209,22.000 49.000,23.791 49.000,26.000 C49.000,28.209 47.209,30.000 45.000,30.000 ZM45.000,23.000 C43.343,23.000 42.000,24.343 42.000,26.000 C42.000,27.657 43.343,29.000 45.000,29.000 C46.657,29.000 48.000,27.657 48.000,26.000 C48.000,24.343 46.657,23.000 45.000,23.000 Z" class="cls-1"/>
</svg>
