<svg xmlns="http://www.w3.org/2000/svg" xmlns:xlink="http://www.w3.org/1999/xlink" preserveAspectRatio="xMidYMid" width="64" height="64" viewBox="0 0 64 64">
  <defs>
    <style>
      .cls-1 {
        fill: #fff;
        fill-rule: evenodd;
      }
    </style>
  </defs>
  <path d="M32.000,64.000 C14.327,64.000 -0.000,49.673 -0.000,32.000 C-0.000,14.327 14.327,0.000 32.000,0.000 C49.673,0.000 64.000,14.327 64.000,32.000 C64.000,49.673 49.673,64.000 32.000,64.000 ZM32.000,2.000 C15.431,2.000 2.000,15.432 2.000,32.000 C2.000,48.569 15.431,62.000 32.000,62.000 C48.568,62.000 62.000,48.569 62.000,32.000 C62.000,15.432 48.568,2.000 32.000,2.000 ZM44.000,44.000 L43.000,44.000 L41.000,44.000 L22.000,44.000 L20.000,44.000 C17.791,44.000 16.000,42.209 16.000,40.000 L16.000,28.000 C16.000,25.791 17.791,24.000 20.000,24.000 L25.000,24.000 L25.000,23.000 C25.000,20.791 26.791,19.000 29.000,19.000 L35.000,19.000 C37.209,19.000 39.000,20.791 39.000,23.000 L39.000,24.000 L44.000,24.000 C46.209,24.000 48.000,25.791 48.000,28.000 L48.000,40.000 C48.000,42.209 46.209,44.000 44.000,44.000 ZM37.000,23.000 C37.000,21.896 36.105,21.000 35.000,21.000 L29.000,21.000 C27.895,21.000 27.000,21.896 27.000,23.000 L27.000,24.000 L37.000,24.000 L37.000,23.000 ZM46.000,28.000 C46.000,26.895 45.105,26.000 44.000,26.000 L20.000,26.000 C18.895,26.000 18.000,26.895 18.000,28.000 L18.000,40.000 C18.000,41.105 18.895,42.000 20.000,42.000 L22.000,42.000 L41.000,42.000 L43.000,42.000 L44.000,42.000 C45.105,42.000 46.000,41.105 46.000,40.000 L46.000,28.000 ZM43.000,30.000 C42.448,30.000 42.000,29.552 42.000,29.000 C42.000,28.448 42.448,28.000 43.000,28.000 C43.552,28.000 44.000,28.448 44.000,29.000 C44.000,29.552 43.552,30.000 43.000,30.000 ZM32.000,40.000 C28.686,40.000 26.000,37.314 26.000,34.000 C26.000,30.686 28.686,28.000 32.000,28.000 C35.314,28.000 38.000,30.686 38.000,34.000 C38.000,37.314 35.314,40.000 32.000,40.000 ZM32.000,30.000 C29.791,30.000 28.000,31.791 28.000,34.000 C28.000,36.209 29.791,38.000 32.000,38.000 C34.209,38.000 36.000,36.209 36.000,34.000 C36.000,31.791 34.209,30.000 32.000,30.000 Z" class="cls-1"/>
</svg>
