<svg xmlns="http://www.w3.org/2000/svg" xmlns:xlink="http://www.w3.org/1999/xlink" preserveAspectRatio="xMidYMid" width="64" height="64" viewBox="0 0 64 64">
  <defs>
    <style>
      .cls-1 {
        fill: #fff;
        fill-rule: evenodd;
      }
    </style>
  </defs>
  <path d="M32.000,64.000 C14.327,64.000 -0.000,49.673 -0.000,32.000 C-0.000,14.327 14.327,0.000 32.000,0.000 C49.673,0.000 64.000,14.327 64.000,32.000 C64.000,49.673 49.673,64.000 32.000,64.000 ZM32.000,2.000 C15.432,2.000 2.000,15.432 2.000,32.001 C2.000,48.569 15.432,62.000 32.000,62.000 C48.568,62.000 62.000,48.569 62.000,32.001 C62.000,15.432 48.568,2.000 32.000,2.000 ZM37.201,32.696 C37.783,33.124 38.254,33.659 38.613,34.302 C38.972,34.944 39.151,35.745 39.151,36.706 C39.151,37.646 38.995,38.528 38.683,39.353 C38.371,40.178 37.916,40.904 37.318,41.531 C36.719,42.157 35.986,42.666 35.117,43.058 C34.248,43.449 33.257,43.645 32.144,43.645 L31.957,46.439 C31.936,46.636 31.855,46.811 31.715,46.962 C31.574,47.112 31.395,47.188 31.176,47.188 L30.146,47.188 L30.380,43.661 C29.121,43.546 27.974,43.237 26.939,42.732 C25.904,42.228 25.012,41.585 24.263,40.805 L25.090,39.525 C25.163,39.411 25.267,39.317 25.402,39.244 C25.537,39.172 25.678,39.135 25.823,39.135 C26.021,39.135 26.245,39.234 26.494,39.431 C26.744,39.629 27.051,39.856 27.415,40.110 C27.779,40.365 28.214,40.612 28.718,40.852 C29.223,41.091 29.829,41.252 30.537,41.335 L31.114,33.048 C30.386,32.829 29.670,32.582 28.968,32.305 C28.266,32.029 27.636,31.669 27.080,31.226 C26.523,30.782 26.076,30.224 25.738,29.551 C25.399,28.879 25.230,28.036 25.230,27.024 C25.230,26.263 25.379,25.520 25.675,24.795 C25.972,24.070 26.403,23.426 26.970,22.862 C27.537,22.299 28.237,21.838 29.070,21.478 C29.902,21.118 30.859,20.938 31.941,20.938 L32.097,18.659 C32.118,18.462 32.196,18.285 32.331,18.129 C32.466,17.973 32.649,17.895 32.878,17.895 L33.908,17.895 L33.689,20.985 C34.782,21.120 35.723,21.401 36.514,21.827 C37.304,22.254 38.012,22.769 38.636,23.372 L37.965,24.402 C37.757,24.715 37.518,24.871 37.247,24.871 C37.102,24.871 36.922,24.806 36.709,24.676 C36.496,24.546 36.238,24.395 35.936,24.223 C35.635,24.051 35.286,23.880 34.891,23.708 C34.495,23.536 34.043,23.414 33.533,23.341 L33.018,30.895 C33.767,31.124 34.506,31.375 35.234,31.647 C35.962,31.918 36.618,32.268 37.201,32.696 ZM30.014,23.700 C29.519,23.908 29.114,24.168 28.796,24.480 C28.479,24.793 28.242,25.144 28.086,25.534 C27.930,25.924 27.852,26.333 27.852,26.759 C27.852,27.258 27.941,27.693 28.118,28.062 C28.294,28.432 28.539,28.757 28.851,29.038 C29.163,29.318 29.527,29.563 29.944,29.771 C30.360,29.979 30.812,30.167 31.301,30.333 L31.769,23.294 C31.093,23.357 30.508,23.492 30.014,23.700 ZM32.831,33.563 L32.300,41.335 C32.976,41.273 33.577,41.125 34.103,40.891 C34.628,40.657 35.070,40.358 35.429,39.993 C35.788,39.629 36.059,39.205 36.241,38.721 C36.423,38.238 36.514,37.704 36.514,37.122 C36.514,36.602 36.418,36.154 36.225,35.780 C36.032,35.405 35.770,35.083 35.437,34.812 C35.104,34.542 34.714,34.307 34.267,34.110 C33.819,33.912 33.340,33.730 32.831,33.563 Z" class="cls-1"/>
</svg>
