<svg xmlns="http://www.w3.org/2000/svg" xmlns:xlink="http://www.w3.org/1999/xlink" preserveAspectRatio="xMidYMid" width="64" height="64" viewBox="0 0 64 64">
  <defs>
    <style>
      .cls-1 {
        fill: #fff;
        fill-rule: evenodd;
      }
    </style>
  </defs>
  <path d="M32.000,64.000 C14.327,64.000 -0.000,49.673 -0.000,32.000 C-0.000,14.327 14.327,0.000 32.000,0.000 C49.673,0.000 64.000,14.327 64.000,32.000 C64.000,49.673 49.673,64.000 32.000,64.000 ZM32.000,2.000 C15.432,2.000 2.000,15.432 2.000,32.000 C2.000,48.569 15.432,62.000 32.000,62.000 C48.568,62.000 62.000,48.569 62.000,32.000 C62.000,15.432 48.568,2.000 32.000,2.000 ZM32.000,55.000 C24.321,55.003 18.554,51.586 14.292,46.414 C13.890,46.133 13.315,44.591 13.867,42.556 C15.632,38.131 19.945,35.000 25.000,35.000 C29.387,35.000 33.213,37.362 35.306,40.875 C36.239,37.492 39.320,35.000 43.000,35.000 C46.720,35.000 50.107,37.560 51.000,41.000 L50.813,44.956 C46.671,51.018 39.896,54.996 32.000,55.000 ZM35.000,50.000 L35.000,47.001 L35.000,47.000 C35.000,47.000 35.000,46.999 35.000,46.999 L35.000,46.000 L34.950,46.000 C34.448,40.947 30.185,37.000 25.000,37.000 C20.276,37.000 16.328,40.280 15.283,44.684 C19.116,49.733 25.172,53.000 32.000,53.000 C33.019,53.000 34.020,52.925 35.000,52.784 L35.000,50.000 ZM49.000,44.000 L49.000,42.000 L48.899,42.000 C48.421,39.165 45.971,37.000 43.000,37.000 C40.391,37.000 38.194,38.675 37.367,41.000 L37.000,41.000 L37.000,47.000 C37.000,47.000 37.000,47.001 37.000,47.001 L37.000,51.000 L37.000,52.386 C42.017,51.154 46.316,48.115 49.190,44.000 L49.000,44.000 ZM43.000,33.000 C39.686,33.000 37.000,30.314 37.000,27.000 C37.000,23.686 39.686,21.000 43.000,21.000 C46.314,21.000 49.000,23.686 49.000,27.000 C49.000,30.314 46.314,33.000 43.000,33.000 ZM43.000,23.000 C40.791,23.000 39.000,24.791 39.000,27.000 C39.000,29.209 40.791,31.000 43.000,31.000 C45.209,31.000 47.000,29.209 47.000,27.000 C47.000,24.791 45.209,23.000 43.000,23.000 ZM25.000,33.000 C20.029,33.000 16.000,28.971 16.000,24.000 C16.000,19.030 20.029,15.000 25.000,15.000 C29.971,15.000 34.000,19.030 34.000,24.000 C34.000,28.971 29.971,33.000 25.000,33.000 ZM25.000,17.000 C21.134,17.000 18.000,20.134 18.000,24.000 C18.000,27.866 21.134,31.000 25.000,31.000 C28.866,31.000 32.000,27.866 32.000,24.000 C32.000,20.134 28.866,17.000 25.000,17.000 Z" class="cls-1"/>
</svg>
